Simulation
nRows=42
nColumns=15
endheader
time  TH_x TH_y TH_z SC_y  SC_z  SC_x  AC_y  AC_z  AC_x  GH_y  GH_z  GH_yy  EL_x  PS_y
2.0666666666666664  0.000000  0.000000  0.000000  -25.37147247571664  12.82175014320814  24.642890939692133  63.577106789125686  11.901645008694675  18.165363571382674  44.237913062389  70.38993349827757  -18.44240194563852  16.231198490525955  120.000000
2.1071895424836597  0.000000  0.000000  0.000000  -25.416413033592445  12.826446336565558  24.699900092134815  63.531954055478856  11.911765295146878  18.176127166941924  44.28981360366598  70.36404923878014  -18.468377411213943  16.268825278492223  120.000000
2.1477124183006535  0.000000  0.000000  0.000000  -25.46754286959963  12.82049655482614  24.747622459008678  63.46252848989083  11.938462313558935  18.173369797160962  44.34124480498999  70.31872764106743  -18.56663221565942  16.309909902922158  120.000000
2.188235294117647  0.000000  0.000000  0.000000  -25.509563572692233  12.79706513460509  24.77269736325658  63.37261357036508  11.975921709420579  18.140898773866226  44.380325854532934  70.25562593042422  -18.757801361930206  16.336632544865076  120.000000
2.22875816993464  0.000000  0.000000  0.000000  -25.527559926121597  12.749745958036236  24.763253433224182  63.26560531293425  12.018000629734102  18.062672754370702  44.39582751524994  70.1758818662681  -19.060956747373726  16.33215096333872  120.000000
2.269281045751634  0.000000  0.000000  0.000000  -25.508648547799694  12.67294072708352  24.7101067518404  63.14384597605293  12.05906033831179  17.924387061305026  44.37890612833159  70.07941042998067  -19.492105592267926  16.282606284576147  120.000000
2.3098039215686272  0.000000  0.000000  0.000000  -25.44378000783021  12.562420411138623  24.607879221687945  63.0077983245025  12.094646561384735  17.7149338739137  44.32448117400345  69.96393138816126  -20.062533470567743  16.179629481608465  120.000000
2.3503267973856206  0.000000  0.000000  0.000000  -25.32875796306531  12.415762080358991  24.455482685473022  62.85553101997051  12.122067032783377  17.42734838468341  44.23207692221214  69.82446131809358  -20.777894722876198  16.021872676990863  120.000000
2.390849673202614  0.000000  0.000000  0.000000  -25.16377851318075  12.232091321620706  24.255627692432565  62.682875259836585  12.140731797840767  17.058996000953325  44.10578896340763  69.65339866307487  -21.638371733871285  15.814620766832634  120.000000
2.4313725490196076  0.000000  0.000000  0.000000  -24.952238865826615  12.011935158308951  24.013666176517418  62.48414573204245  12.151914723607998  16.611105359735042  43.953440555925276  69.44128334884402  -22.639867971119514  15.567799967290437  120.000000
2.471895424836601  0.000000  0.000000  0.000000  -24.699468453107688  11.757105214839926  23.73620190048381  62.253133772210475  12.15834280511402  16.088026276549563  43.7853456762441  69.1778703739954  -23.775447493659705  15.293614815836131  120.000000
2.5124183006535943  0.000000  0.000000  0.000000  -24.41160524072631  11.470412946406377  23.429860196701107  61.98414534207708  12.163846948676179  15.496379408696669  43.613002462193826  68.85330288144159  -25.036074864869914  15.004890185096952  120.000000
2.552941176470588  0.000000  0.000000  0.000000  -24.09515577349132  11.155581487125914  23.100532124833205  61.67313316233102  12.172793508385398  14.844457321752765  43.44809890843473  68.45946135582936  -26.410437680390125  14.714098818668448  120.000000
2.5934640522875814  0.000000  0.000000  0.000000  -23.75705204110551  10.817279013371643  22.75306601294231  61.31896386384476  12.189481632302757  14.141978776304141  43.3017347116636  67.99145506378268  -27.883844352890396  14.432394297854904  120.000000
2.6339869281045747  0.000000  0.000000  0.000000  -23.40459558904987  10.460924329749995  22.39124136759137  60.92453423093696  12.217590900971054  13.400127212626206  43.18368713457898  67.4490806994343  -29.436726193543226  14.16851499819561  120.000000
2.6745098039215685  0.000000  0.000000  0.000000  -23.04563254086297  10.092544128847436  22.01803179640315  60.49749251518056  12.259732673718272  12.63172694379351  43.10179309522307  66.83783028271307  -31.04359755373711  13.927939554944931  120.000000
2.7150326797385618  0.000000  0.000000  0.000000  -22.688614596908785  9.71856371933628  21.635860394649868  60.050025271951036  12.31725817274711  11.851249307328173  43.06158710436335  66.16903824776604  -32.67268604818974  13.71295423461403  120.000000
2.755555555555555  0.000000  0.000000  0.000000  -22.342208686511352  9.345498750998642  21.246858602907945  59.59775996552017  12.390141079141832  11.074381496660878  43.066067965034854  65.4589918383491  -34.28679963524414  13.523711442882886  120.000000
2.796078431372549  0.000000  0.000000  0.000000  -22.015133499098173  8.979871739377039  20.853308507432857  59.158234566106316  12.476782161835727  10.317323640268356  43.115943695947976  64.72735807526158  -35.84520988143979  13.359453989430925  120.000000
2.836601307189542  0.000000  0.000000  0.000000  -21.715784743478206  8.628072901565762  20.457954259900767  58.74918076296907  12.574131362322742  9.59599888092247  43.209861521266895  63.995380410077665  -37.30619906056912  13.219379149885047  120.000000
2.8771241830065355  0.000000  0.000000  0.000000  -21.45122576781537  8.296093475114958  20.064251123720407  58.38663393867958  12.67798818171386  8.92527063187743  43.34459910581084  63.28401420160819  -38.630450913915354  13.102678331018828  120.000000
2.917647058823529  0.000000  0.000000  0.000000  -21.22648880153816  7.989189898226575  19.676451499141162  58.083233586115924  12.783537677413822  8.317783073115432  43.5151859593822  62.61202290795945  -39.785064992731435  13.008892019585783  120.000000
2.9581699346405226  0.000000  0.000000  0.000000  -21.044241968200296  7.711667495122407  19.298846190934402  57.84631600613064  12.886596770555528  7.7829882137707305  43.714811357399476  61.99413380252607  -40.747816621138185  12.93768918616239  120.000000
2.998692810457516  0.000000  0.000000  0.000000  -20.904420687774063  7.466934118556125  18.935304593435983  57.676391405377075  12.984349157358812  7.327121853213794  43.934560244059696  61.439718805999654  -41.51052846076639  12.887027098907678  120.000000
3.039215686274509  0.000000  0.000000  0.000000  -20.80460585952907  7.257463403778128  18.58983890655612  57.56755357249961  13.07540003746525  6.952938927639811  44.164083285775845  60.9526312782828  -42.07919200037325  12.854389289274502  120.000000
3.079738562091503  0.000000  0.000000  0.000000  -20.740609639034115  7.08470894721228  18.267002079358186  57.509368757611234  13.159846220110175  6.659808966350086  44.393359569204556  60.53246066561555  -42.471149123271964  12.838853352729975  120.000000
3.1202614379084963  0.000000  0.000000  0.000000  -20.706476462343613  6.94924273578732  17.971961366169683  57.4888457307206  13.238909226327609  6.444965901984389  44.61391235310425  60.17607822599735  -42.711952774672454  12.839784445966234  120.000000
3.1607843137254896  0.000000  0.000000  0.000000  -20.695070098454433  6.850749598984444  17.710517612328182  57.49218025985119  13.314327210369823  6.303925481844035  44.81915042166479  59.87861308315783  -42.831831500740165  12.856468692836435  120.000000
3.2013071895424834  0.000000  0.000000  0.000000  -20.69921168176267  6.787767916948614  17.48845038452429  57.506366959193635  13.38799114675217  6.230340430218484  45.004235490995306  59.63415102757376  -42.86217674693347  12.88834780151359  120.000000
3.2418300653594767  0.000000  0.000000  0.000000  -20.712394553537447  6.757608320646529  17.31036625162207  57.520213284168456  13.461590775275148  6.2163774532073  45.165590048105145  59.43625129015021  -42.83301341252776  12.93367427676653  120.000000
3.28235294117647  0.000000  0.000000  0.000000  -20.729465820113216  6.75624396573153  17.17887773937132  57.52523937273981  13.536114306118606  6.252775630098945  45.300441334163814  59.278423068360055  -42.770514868773155  12.989637866567106  120.000000
3.322875816993464  0.000000  0.000000  0.000000  -20.74712167728801  6.778161208227937  17.09407944276888  57.5165138786783  13.611632848702822  6.3287820942601165  45.40702641785325  59.15482488015392  -42.69536951163928  13.053435726120373  120.000000
3.363398692810457  0.000000  0.000000  0.000000  -20.76369703882016  6.816500406294833  17.053345534115348  57.49276820588498  13.687441587899638  6.432646544452926  45.484925727804736  59.06065919107612  -42.62285755156514  13.122150971880012  120.000000
3.4039215686274504  0.000000  0.000000  0.000000  -20.778775695362896  6.863379923599404  17.051601027511662  57.45575307317256  13.762439717232581  6.552062769758325  45.53511156111057  58.992027776953286  -42.56401111113363  13.19268767178797  120.000000
3.444444444444444  0.000000  0.000000  0.000000  -20.792949990656723  6.910403441821992  17.08196487409659  57.40923940547218  13.835562287225367  6.674512817470864  45.559931029112484  58.9454951745438  -42.52707467712171  13.26194501766884  120.000000
3.4849673202614375  0.000000  0.000000  0.000000  -20.807502310852442  6.949223683340033  17.136382562332816  57.357985990721325  13.906136341130553  6.787719511542375  45.56304481007495  58.91770952479449  -42.518973250171705  13.326824165807277  120.000000
3.525490196078431  0.000000  0.000000  0.000000  -20.82391293540419  6.97231771250783  17.20650682193926  57.30676916386324  13.973647895661907  6.880129461024513  45.54954411944425  58.90495205691423  -42.546344600162605  13.384258096390646  120.000000
3.5660130718954246  0.000000  0.000000  0.000000  -20.843202627594458  6.9736187962014675  17.284395243893275  57.25986137782544  14.037237132891516  6.941372896572708  45.52626518780804  58.90280367202502  -42.616307514053965  13.431126863495923  120.000000
3.606535947712418  0.000000  0.000000  0.000000  -20.865177295173073  6.9488588995328  17.36250756551278  57.22068058534688  14.095713938019442  6.963035650364909  45.50197798840548  58.90591237379695  -42.73694042083498  13.464055649176286  120.000000
3.6470588235294112  0.000000  0.000000  0.000000  -20.887807361410747  6.896091531266275  17.433755214513212  57.191427654596396  14.14756898233537  6.939415121595746  45.487142685237714  58.907786361960824  -42.91724046034031  13.47904660162339  120.000000
3.6875816993464046  0.000000  0.000000  0.000000  -20.907397215880742  6.815066208317685  17.491400146339643  57.17353818751185  14.191192543145025  6.867172700966756  45.49347471928611  58.90117993998303  -43.16692978360526  13.471286373216403  120.000000
3.7281045751633983  0.000000  0.000000  0.000000  -20.91924690778471  6.706715494360386  17.528666269237192  57.1680091680826  14.224692088348453  6.744888801048009  45.533548833505925  58.87868883675607  -43.49616568969621  13.435430273330931  120.000000
